# xmcd
#
# Track frame offsets:
#	150
#	10588
#	22174
#	33953
#	44246
#	53293
#	64421
#	76096
#	86039
#	102841
#	113944
#	125418
#
# Disc length: 1811 seconds
#
# Revision: 1
# Processed by: cddbd v1.5.1PL0 Copyright (c) Steve Scherf et al.
# Submitted via: audiograbber 1.83.01
#
DISCID=9507110c
DTITLE=Red Sovine - Tell Maude I Slipped
DYEAR=1900
DGENRE=
TTITLE0=Tell Maude I Slipped
TTITLE1=Laura
TTITLE2=Bottle, Bottle
TTITLE3=What Locks The Door
TTITLE4=Turn The World Around
TTITLE5=If My Heart Had Windows
TTITLE6=Not Like It Was With You
TTITLE7=I Know You're Not An Angel
TTITLE8=Reflex Reaction
TTITLE9=Sparkling Wine
TTITLE10=Loser Makin' Good
TTITLE11=Anything Leaving Town Today
EXTD=
EXTT0=
EXTT1=
EXTT2=
EXTT3=
EXTT4=
EXTT5=
EXTT6=
EXTT7=
EXTT8=
EXTT9=
EXTT10=
EXTT11=
PLAYORDER=
